<svg height="512pt" viewBox="0 0 512 512" width="512pt" xmlns="http://www.w3.org/2000/svg"><path d="m495.917969 217.066406-203.71875-203.714844c-8.855469-8.859374-17.902344-13.351562-26.890625-13.351562-12.476563 0-27.042969 9.347656-27.042969 35.683594v125.605468c-62.175781 4.234376-120.027344 30.65625-164.234375 75.320313-47.742188 48.238281-74.03125 112.183594-74.03125 180.054687 0 29.234376 4.90625 57.945313 14.589844 85.335938 2.117187 5.992188 7.785156 10 14.140625 10 6.359375 0 12.023437-4.007812 14.144531-10 29.78125-84.257812 107.136719-142.988281 195.394531-149.960938v124.273438c0 26.335938 14.566407 35.683594 27.039063 35.683594h.003906c8.984375 0 18.03125-4.488282 26.886719-13.34375l203.722656-203.722656c10.367187-10.371094 16.074219-24.195313 16.074219-38.933594 0-14.734375-5.710938-28.5625-16.078125-38.929688zm0 0"/></svg>